# xmcd
#
# Track frame offsets:
# 150
# 36502
# 62420
# 80595
# 105515
# 130527
# 146087
# 163480
# 182052
# 199132
# 217600
# 237732
# 257595
# 280667
# 299450
# 325720
#
# Disc length: 4698 seconds
#
# Revision: 0
# Processed by: cddbd v1.5.1PL0 Copyright (c) Steve Scherf et al.
# Submitted via: Audion 3.0.2 (http://www.panic.com/audion/)
#
DISCID=ee125810
DTITLE=Nona Hendryx - Transformation
DYEAR=1900
DGENRE=
TTITLE0=Bustin' Out
TTITLE1=Why Should I Cry?
TTITLE2=Rock This House
TTITLE3=Baby Go-Go
TTITLE4=Transformation
TTITLE5=Everybody Wants To Be Somebody
TTITLE6=Keep It Confidential
TTITLE7=I Sweat (Going Through The Motions)
TTITLE8=I Need Love
TTITLE9=B-Boys
TTITLE10=Tax Exile
TTITLE11=If Looks Could Kill (D.O.A.)
TTITLE12=Skindiver
TTITLE13=Design For Living
TTITLE14=Winds Of Change (Mandela To Mandela)
TTITLE15=A Man In A Trenchcoat (Voodoo)
EXTD=
EXTT0=
EXTT1=
EXTT2=
EXTT3=
EXTT4=
EXTT5=
EXTT6=
EXTT7=
EXTT8=
EXTT9=
EXTT10=
EXTT11=
EXTT12=
EXTT13=
EXTT14=
EXTT15=
PLAYORDER=
